<svg width="35" height="35" viewBox="0 0 35 35" fill="none" xmlns="http://www.w3.org/2000/svg">
<path d="M4.375 0C3.21468 0 2.10188 0.460936 1.28141 1.28141C0.460936 2.10188 0 3.21468 0 4.375L0 30.625C0 31.7853 0.460936 32.8981 1.28141 33.7186C2.10188 34.5391 3.21468 35 4.375 35H30.625C31.7853 35 32.8981 34.5391 33.7186 33.7186C34.5391 32.8981 35 31.7853 35 30.625V4.375C35 3.21468 34.5391 2.10188 33.7186 1.28141C32.8981 0.460936 31.7853 0 30.625 0L4.375 0ZM11.7119 10.1631L17.5 15.9534L23.2881 10.1631C23.3898 10.0614 23.5105 9.98077 23.6434 9.92573C23.7763 9.87069 23.9187 9.84237 24.0625 9.84237C24.2063 9.84237 24.3487 9.87069 24.4816 9.92573C24.6145 9.98077 24.7352 10.0614 24.8369 10.1631C24.9386 10.2648 25.0192 10.3855 25.0743 10.5184C25.1293 10.6513 25.1576 10.7937 25.1576 10.9375C25.1576 11.0813 25.1293 11.2237 25.0743 11.3566C25.0192 11.4895 24.9386 11.6102 24.8369 11.7119L19.0466 17.5L24.8369 23.2881C24.9386 23.3898 25.0192 23.5105 25.0743 23.6434C25.1293 23.7763 25.1576 23.9187 25.1576 24.0625C25.1576 24.2063 25.1293 24.3487 25.0743 24.4816C25.0192 24.6145 24.9386 24.7352 24.8369 24.8369C24.7352 24.9386 24.6145 25.0192 24.4816 25.0743C24.3487 25.1293 24.2063 25.1576 24.0625 25.1576C23.9187 25.1576 23.7763 25.1293 23.6434 25.0743C23.5105 25.0192 23.3898 24.9386 23.2881 24.8369L17.5 19.0466L11.7119 24.8369C11.6102 24.9386 11.4895 25.0192 11.3566 25.0743C11.2237 25.1293 11.0813 25.1576 10.9375 25.1576C10.7937 25.1576 10.6513 25.1293 10.5184 25.0743C10.3855 25.0192 10.2648 24.9386 10.1631 24.8369C10.0614 24.7352 9.98077 24.6145 9.92573 24.4816C9.87069 24.3487 9.84237 24.2063 9.84237 24.0625C9.84237 23.9187 9.87069 23.7763 9.92573 23.6434C9.98077 23.5105 10.0614 23.3898 10.1631 23.2881L15.9534 17.5L10.1631 11.7119C9.95775 11.5065 9.84237 11.2279 9.84237 10.9375C9.84237 10.6471 9.95775 10.3685 10.1631 10.1631C10.3685 9.95775 10.6471 9.84237 10.9375 9.84237C11.2279 9.84237 11.5065 9.95775 11.7119 10.1631Z" fill="#EAB7B7"/>
</svg>
