<svg width="23" height="22" viewBox="0 0 23 22" fill="none" xmlns="http://www.w3.org/2000/svg">
<path d="M11.2958 0C5.07806 0 0.0351562 4.92617 0.0351562 11C0.0351562 17.0738 5.07806 22 11.2958 22C17.5136 22 22.5565 17.0738 22.5565 11C22.5565 4.92617 17.5164 0 11.2958 0ZM5.59043 11.3694L5.63828 11.2952L8.56887 6.81817C8.57869 6.80345 8.59237 6.79158 8.60849 6.78379C8.62461 6.776 8.64257 6.77259 8.6605 6.7739C8.67843 6.77521 8.69567 6.7812 8.71042 6.79125C8.72517 6.80129 8.73689 6.81502 8.74435 6.831C9.23232 7.90258 9.65647 9.23542 9.45753 10.065C9.37495 10.406 9.14317 10.868 8.88136 11.2952C8.84777 11.3577 8.81113 11.4185 8.77157 11.4776C8.76209 11.4908 8.74941 11.5014 8.73467 11.5086C8.71993 11.5158 8.70359 11.5193 8.68711 11.5188H5.6777C5.65973 11.5191 5.64203 11.5146 5.62647 11.5059C5.61091 11.4971 5.59806 11.4844 5.58931 11.469C5.58055 11.4537 5.5762 11.4364 5.57673 11.4188C5.57726 11.4013 5.58264 11.3842 5.5923 11.3694H5.59043ZM18.6472 12.9094C18.6474 12.929 18.6418 12.9482 18.6309 12.9647C18.6201 12.9811 18.6045 12.9941 18.5862 13.002C18.3582 13.0964 17.5821 13.4466 17.2593 13.8838C16.4354 15.004 15.8067 16.6063 14.3991 16.6063H8.5304C8.0349 16.6056 7.5444 16.5095 7.08693 16.3235C6.62946 16.1376 6.214 15.8653 5.86428 15.5224C5.51456 15.1795 5.23744 14.7727 5.04876 14.3251C4.86008 13.8775 4.76353 13.398 4.76464 12.914V12.848C4.76464 12.7948 4.80968 12.7508 4.86599 12.7508H8.13628C8.20196 12.7508 8.24888 12.8086 8.24419 12.8718C8.21979 13.079 8.26014 13.2926 8.36149 13.486C8.5548 13.871 8.95831 14.1112 9.39278 14.1112H11.0124V12.8764H9.40967C9.39089 12.8762 9.37252 12.871 9.35654 12.8614C9.34056 12.8517 9.32757 12.838 9.31898 12.8217C9.31039 12.8054 9.30651 12.7871 9.30778 12.7688C9.30904 12.7505 9.3154 12.7329 9.32616 12.7178L9.38527 12.6353C9.53542 12.4236 9.75218 12.0982 9.96801 11.726C10.1144 11.4748 10.257 11.2072 10.3715 10.9377C10.394 10.89 10.4119 10.8396 10.4325 10.791C10.4635 10.7048 10.4954 10.6242 10.5179 10.5444C10.54 10.4768 10.5604 10.4086 10.5789 10.34C10.6324 10.1108 10.6549 9.86883 10.6549 9.61858C10.6549 9.51958 10.6512 9.416 10.6418 9.31883C10.6371 9.21158 10.623 9.10342 10.6099 8.99617C10.5994 8.90021 10.5843 8.80477 10.5648 8.71017C10.5396 8.56611 10.5089 8.42302 10.4729 8.28117L10.4597 8.22617C10.4316 8.12717 10.4072 8.03367 10.3753 7.93558C10.2859 7.63437 10.1832 7.33709 10.0675 7.04458C10.0272 6.93456 9.98271 6.82601 9.93423 6.71917C9.86667 6.556 9.79723 6.40842 9.73435 6.27C9.70307 6.2107 9.67365 6.15048 9.64615 6.08942C9.61563 6.02354 9.5834 5.95844 9.54949 5.89417C9.52697 5.84558 9.49976 5.79883 9.48193 5.75483L9.28393 5.39917C9.25671 5.35058 9.30176 5.291 9.35618 5.30658L10.5949 5.63383H10.6042L10.7666 5.67967L10.9468 5.72917L11.0124 5.74658V5.02883C11.0124 4.68142 11.2958 4.4 11.6496 4.4C11.7331 4.39978 11.8159 4.41607 11.8928 4.44789C11.9697 4.47971 12.0393 4.52641 12.0972 4.58517C12.217 4.70322 12.2845 4.8626 12.2849 5.02883V6.09583L12.4172 6.13158C12.4266 6.13617 12.4379 6.14075 12.4463 6.14717C12.4782 6.16917 12.5251 6.204 12.5842 6.248C12.6312 6.28283 12.6809 6.32683 12.7391 6.37358C12.9244 6.52106 13.1041 6.67516 13.2777 6.83558C13.4785 7.018 13.7037 7.23158 13.9196 7.469C13.9806 7.53683 14.0387 7.60283 14.0997 7.67617C14.1579 7.74858 14.2236 7.81917 14.278 7.88883C14.3522 7.98417 14.4282 8.08317 14.4986 8.18583C14.5295 8.23442 14.568 8.28483 14.5971 8.33342C14.6872 8.46358 14.7641 8.59742 14.8383 8.73217C14.8702 8.79358 14.9011 8.86142 14.9283 8.92742C15.0119 9.108 15.0775 9.29042 15.1179 9.47558C15.1312 9.51488 15.1404 9.55544 15.1451 9.59658V9.60575C15.1582 9.658 15.1629 9.71575 15.1676 9.77442C15.1941 10.0454 15.1601 10.3187 15.0682 10.5756C15.0391 10.6526 15.0119 10.7314 14.9762 10.8084C14.9058 10.9643 14.8251 11.1228 14.7285 11.2686C14.6966 11.3236 14.6581 11.3804 14.6224 11.4354C14.5821 11.4932 14.5389 11.5482 14.5033 11.6004C14.4517 11.6698 14.3975 11.7374 14.3409 11.803C14.2912 11.869 14.2414 11.935 14.1851 11.9946C14.1091 12.0844 14.035 12.1687 13.9552 12.2494C13.9102 12.3026 13.8614 12.3576 13.8088 12.4053C13.76 12.4602 13.7075 12.5088 13.6625 12.5528C13.5836 12.6298 13.5217 12.6876 13.4673 12.738L13.3387 12.8498C13.3208 12.8674 13.2965 12.8773 13.2711 12.8773H12.2849V14.1112H13.5255C13.8023 14.1112 14.066 14.0158 14.2799 13.838C14.3522 13.7766 14.6693 13.508 15.0456 13.1028C15.0579 13.089 15.0743 13.0794 15.0926 13.0753L18.5177 12.1064C18.5327 12.1022 18.5486 12.1014 18.564 12.1041C18.5794 12.1069 18.5939 12.113 18.6065 12.1222C18.619 12.1313 18.6292 12.1432 18.6363 12.1568C18.6433 12.1705 18.6471 12.1855 18.6472 12.2008V12.9094Z" fill="black"/>
</svg>
