<svg width="26" height="21" viewBox="0 0 26 21" fill="none" xmlns="http://www.w3.org/2000/svg">
<path d="M22.1259 5.81457V6.44197C22.1259 12.7598 17.2641 20 8.36793 20C5.74167 20.0056 3.17118 19.2531 0.973511 17.8355C1.35518 17.8866 1.74017 17.9096 2.12531 17.9045C4.30228 17.9104 6.41803 17.1944 8.13248 15.8717C7.12111 15.857 6.14017 15.5284 5.32907 14.9326C4.51797 14.3368 3.91798 13.5041 3.61438 12.5528C3.91563 12.6158 4.22277 12.6473 4.53072 12.6469C4.96075 12.647 5.38883 12.59 5.80343 12.4775C4.708 12.2622 3.7225 11.6783 3.01556 10.8256C2.30863 9.97301 1.92419 8.90467 1.92804 7.80341V7.74067C2.59825 8.10978 3.34963 8.31221 4.11709 8.33043C3.09549 7.66762 2.36915 6.64523 2.08647 5.47214C1.8038 4.29906 1.98613 3.06383 2.59621 2.01883C3.81181 3.49289 5.32845 4.69823 7.04753 5.55648C8.76661 6.41473 10.6496 6.90668 12.5742 7.00035C12.479 6.64425 12.434 6.2769 12.4406 5.90868C12.4048 4.93553 12.674 3.97515 13.2117 3.15828C13.7493 2.34142 14.5293 1.70778 15.4453 1.34364C16.3614 0.979506 17.369 0.902566 18.3309 1.1233C19.2929 1.34403 20.1625 1.85171 20.8214 2.57722C21.9043 2.36175 22.9431 1.96946 23.8949 1.41653C23.534 2.54043 22.7661 3.49403 21.7377 4.09551C22.6983 3.965 23.6349 3.69877 24.5186 3.30499C23.8782 4.27472 23.068 5.12447 22.1259 5.81457Z" fill="white" stroke="white" stroke-linecap="round" stroke-linejoin="round"/>
</svg>
