<svg width="24" height="21" viewBox="0 0 24 21" fill="none" xmlns="http://www.w3.org/2000/svg">
<path d="M21.6 4.66667V2.33333C21.6 1.0465 20.5236 0 19.2 0H3.6C1.6152 0 0 1.57033 0 3.5V17.5C0 20.0678 2.1528 21 3.6 21H21.6C22.9236 21 24 19.9535 24 18.6667V7C24 5.71317 22.9236 4.66667 21.6 4.66667ZM3.6 2.33333H19.2V4.66667H3.6C3.29102 4.65323 2.99929 4.52444 2.78553 4.30712C2.57178 4.0898 2.45248 3.80069 2.45248 3.5C2.45248 3.19931 2.57178 2.9102 2.78553 2.69288C2.99929 2.47556 3.29102 2.34677 3.6 2.33333ZM21.6 18.6667H3.6144C3.06 18.6527 2.4 18.4392 2.4 17.5V6.78417C2.7768 6.916 3.1764 7 3.6 7H21.6V18.6667Z" fill="#505050"/>
</svg>
