<svg width="25" height="25" viewBox="0 0 25 25" fill="none" xmlns="http://www.w3.org/2000/svg">
<path d="M21.8931 20.2662C21.8985 20.2582 21.9065 20.2502 21.9119 20.2421C23.6663 18.1555 24.7217 15.4662 24.7217 12.5278C24.7217 9.58944 23.6663 6.90015 21.9145 4.81355C21.9092 4.80551 21.9011 4.80015 21.8958 4.79212C21.8663 4.7573 21.8395 4.72515 21.8101 4.69301C21.7994 4.67962 21.7886 4.6689 21.7779 4.65551L21.6681 4.52962L21.6654 4.52694C21.6253 4.4814 21.5824 4.43587 21.5422 4.39033L21.5395 4.38765C21.4538 4.29658 21.3681 4.20551 21.2797 4.11712L21.277 4.11444L21.1485 3.98587L21.1404 3.97783C21.1003 3.93765 21.0601 3.90015 21.0199 3.86265C21.0065 3.84926 20.9931 3.83587 20.977 3.82247C20.9503 3.79569 20.9235 3.77158 20.8967 3.74747C20.8886 3.73944 20.8779 3.7314 20.8699 3.72069C18.7324 1.73855 15.869 0.527832 12.7217 0.527832C9.57436 0.527832 6.71097 1.73855 4.57079 3.72069C4.56275 3.72872 4.55204 3.73676 4.544 3.74747C4.51722 3.77158 4.49043 3.79837 4.46364 3.82515C4.45025 3.83855 4.43686 3.85194 4.42079 3.86533C4.38061 3.90283 4.34043 3.94301 4.30025 3.98051L4.29222 3.98855L4.16364 4.11712L4.16097 4.1198C4.07257 4.20819 3.98686 4.29926 3.90114 4.39033L3.89847 4.39301C3.85561 4.43855 3.81543 4.48408 3.77525 4.52962L3.77257 4.5323C3.73507 4.57247 3.69757 4.61533 3.66275 4.65819C3.65204 4.67158 3.64132 4.6823 3.63061 4.69569C3.60114 4.72783 3.57436 4.76265 3.54489 4.7948C3.53954 4.80283 3.5315 4.80819 3.52614 4.81623C1.77704 6.90015 0.72168 9.58944 0.72168 12.5278C0.72168 15.4662 1.77704 18.1555 3.52882 20.2421C3.53418 20.2502 3.54222 20.2582 3.54757 20.2662L3.63061 20.3653C3.64132 20.3787 3.65204 20.3894 3.66275 20.4028L3.77257 20.5287C3.77257 20.5314 3.77525 20.5314 3.77525 20.5341C3.81543 20.5796 3.85561 20.6252 3.89847 20.668L3.90114 20.6707C3.98686 20.7618 4.07257 20.8528 4.15829 20.9412L4.16097 20.9439C4.20382 20.9868 4.244 21.0296 4.28686 21.0698L4.29489 21.0778C4.38329 21.1662 4.47436 21.2519 4.56543 21.335C6.71097 23.3171 9.57436 24.5278 12.7217 24.5278C15.869 24.5278 18.7324 23.3171 20.8726 21.335C20.9638 21.2513 21.0531 21.1656 21.1404 21.0778L21.1485 21.0698C21.1913 21.0269 21.2342 20.9868 21.2744 20.9439L21.277 20.9412C21.3654 20.8528 21.4511 20.7618 21.5342 20.6707L21.5369 20.668C21.577 20.6225 21.6199 20.5796 21.6601 20.5341C21.6601 20.5314 21.6628 20.5314 21.6628 20.5287C21.7003 20.4885 21.7378 20.4457 21.7726 20.4028C21.7833 20.3894 21.794 20.3787 21.8047 20.3653C21.835 20.333 21.8645 20.3 21.8931 20.2662ZM22.0029 16.4466C21.6333 17.3198 21.1458 18.1287 20.5511 18.8627C19.8814 18.2839 19.1492 17.7817 18.3681 17.3653C18.6788 16.1091 18.8717 14.7296 18.9226 13.2778H22.7663C22.686 14.3734 22.4288 15.4368 22.0029 16.4466ZM22.7663 11.7778H18.9226C18.8717 10.326 18.6788 8.94658 18.3681 7.69033C19.1529 7.27247 19.8842 6.7689 20.5511 6.19301C21.8437 7.78401 22.6169 9.73338 22.7663 11.7778ZM16.6404 3.24658C17.7038 3.69658 18.6708 4.31801 19.5226 5.10015C19.0278 5.52147 18.4951 5.89628 17.9315 6.2198C17.511 5.01444 16.9726 3.96712 16.3458 3.12873C16.4449 3.16623 16.544 3.2064 16.6404 3.24658ZM14.2136 22.0127C13.9672 22.2055 13.7208 22.3528 13.4717 22.4519V17.4832C14.5345 17.5573 15.5797 17.794 16.5708 18.185C16.3485 18.8439 16.0913 19.4519 15.794 20.001C15.3279 20.8689 14.7815 21.5627 14.2136 22.0127ZM15.794 5.05462C16.0886 5.6064 16.3485 6.21444 16.5708 6.87069C15.5797 7.26164 14.5345 7.49832 13.4717 7.57247V2.6064C13.7181 2.70551 13.9672 2.85015 14.2136 3.04569C14.7815 3.49301 15.3279 4.18676 15.794 5.05462ZM13.4717 15.9805V13.2778H17.4226C17.3797 14.4618 17.2324 15.6109 16.986 16.701L16.9779 16.7332C15.8538 16.3069 14.6717 16.0532 13.4717 15.9805ZM13.4717 11.7778V9.07515C14.6985 9.00015 15.877 8.74033 16.9779 8.32247L16.986 8.35462C17.2324 9.4448 17.3797 10.5912 17.4226 11.7778H13.4717ZM11.9717 13.2778V15.9805C10.7449 16.0555 9.56632 16.3153 8.46543 16.7332L8.45739 16.701C8.21097 15.6109 8.06364 14.4644 8.02079 13.2778H11.9717ZM8.02079 11.7778C8.06364 10.5939 8.21097 9.4448 8.45739 8.35462L8.46543 8.32247C9.56632 8.74033 10.7422 9.00015 11.9717 9.07515V11.7778H8.02079ZM11.9717 17.4832V22.4493C11.7253 22.3502 11.4761 22.2055 11.2297 22.01C10.6619 21.5627 10.1128 20.8662 9.64668 19.9984C9.35204 19.4466 9.09222 18.8385 8.86989 18.1823C9.86632 17.7912 10.9029 17.5582 11.9717 17.4832ZM11.9717 7.57247C10.9088 7.49832 9.86367 7.26164 8.87257 6.87069C9.09489 6.21176 9.35204 5.60372 9.64936 5.05462C10.1154 4.18676 10.6619 3.49033 11.2324 3.04301C11.4788 2.85015 11.7253 2.70283 11.9744 2.60372V7.57247H11.9717ZM8.80293 3.24658C8.90204 3.2064 8.99847 3.16623 9.09757 3.12873C8.47079 3.96712 7.93239 5.01444 7.51186 6.2198C6.94936 5.89837 6.41632 5.52337 5.92079 5.10015C6.77257 4.31801 7.73954 3.69658 8.80293 3.24658ZM3.44043 8.60908C3.81007 7.73587 4.29757 6.92694 4.89222 6.19301C5.55918 6.7689 6.29043 7.27247 7.07525 7.69033C6.76454 8.94658 6.57168 10.326 6.52079 11.7778H2.67704C2.75739 10.6823 3.01454 9.6189 3.44043 8.60908ZM2.67704 13.2778H6.52079C6.57168 14.7296 6.76454 16.1091 7.07525 17.3653C6.29413 17.7817 5.56192 18.2839 4.89222 18.8627C3.59962 17.2717 2.82641 15.3223 2.67704 13.2778ZM8.80293 21.8091C7.73954 21.3591 6.77257 20.7377 5.92079 19.9555C6.41632 19.5323 6.94936 19.16 7.51186 18.8359C7.93239 20.0412 8.47079 21.0885 9.09757 21.9269C8.99847 21.8894 8.89936 21.8493 8.80293 21.8091ZM16.6404 21.8091C16.5413 21.8493 16.4449 21.8894 16.3458 21.9269C16.9726 21.0885 17.511 20.0412 17.9315 18.8359C18.494 19.1573 19.027 19.5323 19.5226 19.9555C18.6755 20.7344 17.7005 21.3614 16.6404 21.8091Z" fill="white"/>
</svg>
