<svg width="34" height="32" viewBox="0 0 34 32" fill="none" xmlns="http://www.w3.org/2000/svg">
<path d="M12.9023 22.782C12.2836 23.6638 11.6208 24.5153 10.9164 25.3334C5.87978 25.1934 3.96887 22 3.96887 22C4.04046 17.4754 5.1629 13.0258 7.25153 8.9867C9.08749 7.58366 11.3246 6.77291 13.6531 6.6667L14.3355 8.2067C15.3103 8.07451 16.2929 8.00547 17.2769 8.00003C18.2654 8.00321 19.2526 8.07002 20.232 8.20003L20.9145 6.66003C23.2453 6.77199 25.4826 7.58982 27.316 9.00003C29.3979 13.0362 30.5156 17.481 30.585 22C30.585 22 28.6741 25.1934 23.6375 25.3334C22.9438 24.5192 22.2923 23.6714 21.6857 22.7934L12.9023 22.782ZM26.0944 20.86C23.4737 22.1567 20.9377 23.4534 17.2769 23.4534C13.6162 23.4534 11.0802 22.1567 8.45949 20.86" fill="white"/>
<path d="M26.0944 20.86C23.4737 22.1567 20.9377 23.4534 17.2769 23.4534C13.6162 23.4534 11.0802 22.1567 8.45949 20.86M12.9023 22.782C12.2836 23.6638 11.6208 24.5153 10.9164 25.3334C5.87978 25.1934 3.96887 22 3.96887 22C4.04046 17.4754 5.1629 13.0258 7.25153 8.9867C9.08749 7.58366 11.3246 6.77291 13.6531 6.6667L14.3355 8.2067C15.3103 8.07451 16.2929 8.00547 17.2769 8.00003C18.2654 8.00321 19.2526 8.07002 20.232 8.20003L20.9145 6.66003C23.2453 6.77199 25.4826 7.58982 27.316 9.00003C29.3979 13.0362 30.5156 17.481 30.585 22C30.585 22 28.6741 25.1934 23.6375 25.3334C22.9438 24.5192 22.2923 23.6714 21.6857 22.7934L12.9023 22.782Z" stroke="white" stroke-linecap="round" stroke-linejoin="round"/>
<path d="M21.4761 19.72C22.7388 19.72 23.7624 18.7201 23.7624 17.4866C23.7624 16.2532 22.7388 15.2533 21.4761 15.2533C20.2135 15.2533 19.1899 16.2532 19.1899 17.4866C19.1899 18.7201 20.2135 19.72 21.4761 19.72Z" stroke="#3F3C40" stroke-linecap="round" stroke-linejoin="round"/>
<path d="M13.0777 19.72C14.3404 19.72 15.364 18.7201 15.364 17.4866C15.364 16.2532 14.3404 15.2533 13.0777 15.2533C11.815 15.2533 10.7914 16.2532 10.7914 17.4866C10.7914 18.7201 11.815 19.72 13.0777 19.72Z" stroke="#3F3C40" stroke-linecap="round" stroke-linejoin="round"/>
</svg>
