<svg width="28" height="28" viewBox="0 0 28 28" fill="none" xmlns="http://www.w3.org/2000/svg">
<path d="M24.7667 22.9298C26.2038 21.2021 27.2034 19.154 27.6808 16.9586C28.1582 14.7633 28.0994 12.4854 27.5093 10.3176C26.9193 8.14976 25.8154 6.15583 24.291 4.50445C22.7666 2.85308 20.8666 1.59284 18.7517 0.830353C16.6367 0.0678641 14.3691 -0.174445 12.1406 0.123923C9.91216 0.422291 7.78838 1.25256 5.94897 2.54449C4.10955 3.83642 2.60861 5.55201 1.57312 7.54613C0.537622 9.54024 -0.001964 11.7542 5.37148e-06 14.0008C0.000761085 17.2666 1.15257 20.4279 3.25333 22.9298L3.23331 22.9468C3.30337 23.0308 3.38342 23.1028 3.45547 23.1858C3.54554 23.2888 3.64261 23.3858 3.73567 23.4858C4.01587 23.7897 4.30408 24.0817 4.6063 24.3557C4.69836 24.4397 4.79343 24.5176 4.8865 24.5976C5.20672 24.8736 5.53596 25.1356 5.8772 25.3796C5.92123 25.4096 5.96126 25.4486 6.0053 25.4795V25.4676C8.34907 27.1155 11.1451 28 14.011 28C16.877 28 19.673 27.1155 22.0167 25.4676V25.4795C22.0608 25.4486 22.0998 25.4096 22.1448 25.3796C22.4851 25.1346 22.8153 24.8736 23.1355 24.5976C23.2286 24.5176 23.3237 24.4387 23.4157 24.3557C23.7179 24.0807 24.0062 23.7897 24.2864 23.4858C24.3794 23.3858 24.4755 23.2888 24.5666 23.1858C24.6376 23.1028 24.7187 23.0308 24.7887 22.9458L24.7667 22.9298ZM14.01 6.00162C14.9007 6.00162 15.7713 6.26551 16.5119 6.75992C17.2524 7.25434 17.8296 7.95707 18.1704 8.77925C18.5113 9.60143 18.6005 10.5061 18.4267 11.379C18.2529 12.2518 17.8241 13.0535 17.1943 13.6828C16.5645 14.3121 15.7621 14.7406 14.8885 14.9142C14.015 15.0878 13.1096 14.9987 12.2867 14.6582C11.4639 14.3176 10.7605 13.7409 10.2657 13.0009C9.77091 12.261 9.5068 11.3911 9.5068 10.5011C9.5068 9.30779 9.98124 8.16332 10.8258 7.3195C11.6703 6.47567 12.8157 6.00162 14.01 6.00162ZM6.0113 22.9298C6.02866 21.6169 6.56264 20.3637 7.49772 19.4411C8.4328 18.5186 9.69378 18.001 11.0079 18.0003H17.0122C18.3262 18.001 19.5872 18.5186 20.5223 19.4411C21.4574 20.3637 21.9914 21.6169 22.0087 22.9298C19.814 24.9059 16.9644 25.9996 14.01 25.9996C11.0556 25.9996 8.20603 24.9059 6.0113 22.9298Z" fill="#505050"/>
</svg>
