<svg width="20" height="15" viewBox="0 0 20 15" fill="none" xmlns="http://www.w3.org/2000/svg">
<path d="M10.8227 0.431975C10.7309 0.298734 10.6082 0.189791 10.465 0.114529C10.3218 0.039267 10.1624 -5.71267e-05 10.0007 -5.71408e-05C9.83891 -5.7155e-05 9.67956 0.039267 9.53636 0.114529C9.39317 0.18979 9.27041 0.298733 9.17868 0.431974L0.178673 13.432C0.0744978 13.5819 0.013408 13.7575 0.00203905 13.9398C-0.00932993 14.122 0.0294572 14.3039 0.114187 14.4656C0.198917 14.6273 0.326349 14.7627 0.482637 14.8571C0.638926 14.9515 0.818093 15.0013 1.00067 15.001L19.0007 15.001C19.1828 15.0002 19.3613 14.9498 19.517 14.8552C19.6727 14.7606 19.7996 14.6253 19.8841 14.464C19.9686 14.3026 20.0076 14.1213 19.9968 13.9394C19.9859 13.7576 19.9258 13.5822 19.8227 13.432L10.8227 0.431975Z" fill="white"/>
</svg>
