<svg width="83" height="58" viewBox="0 0 83 58" fill="none" xmlns="http://www.w3.org/2000/svg">
<path d="M28.2347 49.6782C26.3535 52.359 24.3384 54.9478 22.1967 57.4351C6.88376 57.0094 1.07397 47.3006 1.07397 47.3006C1.29163 33.5443 4.70422 20.0159 11.0544 7.73572C16.6363 3.47 23.4378 1.00505 30.5172 0.682135L32.5921 5.36425C35.5556 4.96236 38.5431 4.75245 41.535 4.73592C44.5402 4.74558 47.5416 4.94871 50.5194 5.34399L52.5944 0.661865C59.6807 1.00226 66.4828 3.48872 72.0571 7.77626C78.3868 20.0475 81.785 33.5612 81.996 47.3006C81.996 47.3006 76.1862 57.0094 60.8733 57.4351C58.764 54.9597 56.7834 52.3823 54.939 49.7126L28.2347 49.6782ZM68.343 43.8347C60.3753 47.777 52.6649 51.7193 41.535 51.7193C30.4051 51.7193 22.6947 47.777 14.727 43.8347" fill="white"/>
<path d="M68.343 43.8347C60.3753 47.777 52.6649 51.7193 41.535 51.7193C30.4051 51.7193 22.6947 47.777 14.727 43.8347M28.2347 49.6782C26.3535 52.359 24.3384 54.9478 22.1967 57.4351C6.88376 57.0095 1.07397 47.3006 1.07397 47.3006C1.29163 33.5443 4.70422 20.0159 11.0544 7.73572C16.6363 3.47 23.4378 1.00505 30.5172 0.682135L32.5921 5.36425C35.5556 4.96236 38.5431 4.75245 41.535 4.73592C44.5402 4.74558 47.5416 4.94871 50.5194 5.34399L52.5944 0.661865C59.6807 1.00226 66.4829 3.48872 72.0571 7.77626C78.3868 20.0475 81.785 33.5612 81.996 47.3006C81.996 47.3006 76.1862 57.0095 60.8733 57.4351C58.764 54.9597 56.7834 52.3823 54.939 49.7126L28.2347 49.6782Z" stroke="white" stroke-linecap="round" stroke-linejoin="round"/>
<path d="M54.3016 40.3688C58.1405 40.3688 61.2526 37.3287 61.2526 33.5787C61.2526 29.8286 58.1405 26.7886 54.3016 26.7886C50.4627 26.7886 47.3506 29.8286 47.3506 33.5787C47.3506 37.3287 50.4627 40.3688 54.3016 40.3688Z" fill="white" stroke="black" stroke-width="4" stroke-linecap="round" stroke-linejoin="round"/>
<path d="M28.7681 40.3688C32.6071 40.3688 35.7191 37.3287 35.7191 33.5787C35.7191 29.8286 32.6071 26.7886 28.7681 26.7886C24.9292 26.7886 21.8171 29.8286 21.8171 33.5787C21.8171 37.3287 24.9292 40.3688 28.7681 40.3688Z" fill="white" stroke="black" stroke-width="4" stroke-linecap="round" stroke-linejoin="round"/>
</svg>
