<svg width="57" height="57" viewBox="0 0 57 57" fill="none" xmlns="http://www.w3.org/2000/svg">
<path d="M38.0032 28.447V28.4447C38.0031 26.2858 37.2411 24.1937 35.847 22.5249C34.453 20.8561 32.5131 19.7138 30.3579 19.2926C28.2027 18.8714 25.9655 19.1974 24.0275 20.215C22.0895 21.2326 20.5706 22.8789 19.7296 24.8734C18.8885 26.8679 18.7774 29.0872 19.4151 31.1532C20.0528 33.2192 21.3999 35.004 23.2269 36.2036C25.0539 37.4032 27.2477 37.9433 29.4345 37.732C31.6214 37.5207 33.6661 36.5709 35.2201 35.0446C36.1019 34.2072 36.8028 33.2037 37.2809 32.0942C37.7591 30.9847 38.0047 29.7919 38.0032 28.587L38.0008 28.44V28.447H38.0032ZM43.1323 28.447C43.1209 31.7562 41.9427 34.9593 39.7982 37.5111C37.6537 40.0629 34.6754 41.8058 31.3701 42.4432C28.0649 43.0806 24.637 42.573 21.6698 41.007C18.7026 39.4409 16.3794 36.913 15.0956 33.8536C13.8118 30.7942 13.6468 27.3922 14.6286 24.2267C15.6104 21.0612 17.6783 18.3278 20.4805 16.4915C23.2827 14.6553 26.6459 13.8298 29.9979 14.1554C33.3498 14.4811 36.4833 15.9378 38.8652 18.2777C40.2177 19.5672 41.2927 21.1106 42.0262 22.8163C42.7596 24.522 43.1366 26.3551 43.1347 28.2067L43.1323 28.461V28.4494V28.447ZM47.1383 13.5022V13.5068C47.1385 14.2841 46.8645 15.0374 46.3628 15.6383C45.8611 16.2393 45.1628 16.6508 44.3869 16.8026C43.6111 16.9545 42.8056 16.8373 42.1078 16.4712C41.41 16.105 40.863 15.5124 40.5601 14.7944C40.2571 14.0764 40.2169 13.2774 40.4464 12.5336C40.6758 11.7898 41.1607 11.1471 41.8184 10.7151C42.4761 10.2832 43.2659 10.0886 44.0532 10.1646C44.8405 10.2406 45.5766 10.5824 46.1362 11.1319C46.7441 11.7175 47.1216 12.534 47.1216 13.4369V13.5045V13.5022H47.1383ZM28.5214 5.47685L25.6837 5.45819C23.9645 5.44574 22.6593 5.44574 21.768 5.45819C20.8767 5.47063 19.6831 5.50718 18.1871 5.56783C16.798 5.61449 15.48 5.7498 14.1906 5.96444L14.364 5.94111C13.3548 6.10441 12.4595 6.33771 11.6023 6.64799L11.7044 6.61533C10.4934 7.09361 9.3921 7.80531 8.4655 8.70843C7.53891 9.61156 6.80577 10.6878 6.30932 11.8738L6.28558 11.9368C5.98078 12.7564 5.755 13.6023 5.61119 14.4634L5.59932 14.5497C5.38811 15.7755 5.26197 17.0141 5.22175 18.2567L5.21938 18.3057C5.15764 19.777 5.12044 20.9497 5.10777 21.8238C5.09511 22.6979 5.09511 23.9802 5.10777 25.6708C5.12044 27.3614 5.12677 28.2907 5.12677 28.4587C5.12677 28.6267 5.12044 29.5559 5.10777 31.2466C5.09511 32.9372 5.09511 34.2195 5.10777 35.0936C5.12044 35.9677 5.15764 37.1404 5.21938 38.6117C5.26687 39.9764 5.4046 41.2712 5.62306 42.538L5.59932 42.3677C5.76554 43.3592 6.003 44.2387 6.31882 45.0809L6.28558 44.9806C6.7724 46.1704 7.49681 47.2524 8.41606 48.1627C9.33532 49.073 10.4308 49.7933 11.6379 50.281L11.702 50.3044C12.4572 50.582 13.3524 50.8153 14.2737 50.9669L14.3616 50.9786C15.4753 51.1699 16.7932 51.3052 18.1325 51.3495L18.1823 51.3519C19.6799 51.4125 20.8736 51.4491 21.7632 51.4615C22.6529 51.474 23.9582 51.474 25.679 51.4615L28.5 51.4055L31.3377 51.4242C33.0569 51.4366 34.3621 51.4366 35.2534 51.4242C36.1446 51.4118 37.3383 51.3752 38.8343 51.3145C40.2234 51.2679 41.5413 51.1326 42.8307 50.9179L42.6574 50.9413C43.6666 50.778 44.5618 50.5447 45.4191 50.2344L45.3169 50.2671C46.528 49.7888 47.6293 49.0771 48.5559 48.1739C49.4825 47.2708 50.2156 46.1945 50.712 45.0086L50.7358 44.9456C51.0184 44.2037 51.2558 43.3242 51.4102 42.419L51.4221 42.3327C51.6168 41.2386 51.7545 39.9438 51.7996 38.628L51.802 38.579C51.8637 37.1077 51.9009 35.935 51.9136 35.0609C51.9263 34.1868 51.9263 32.9045 51.9136 31.2139C51.9009 29.5233 51.8946 28.594 51.8946 28.426C51.8946 28.2581 51.9009 27.3288 51.9136 25.6382C51.9263 23.9475 51.9263 22.6652 51.9136 21.7911C51.9009 20.9171 51.8637 19.7444 51.802 18.273C51.7545 16.9083 51.6168 15.6135 51.3983 14.3467L51.4221 14.517C51.2714 13.592 51.0305 12.6834 50.7025 11.8038L50.7358 11.9041C50.249 10.7143 49.5246 9.63235 48.6053 8.72201C47.6861 7.81167 46.5906 7.0914 45.3834 6.60366L45.3193 6.58033C44.4851 6.28089 43.6241 6.05906 42.7476 5.91778L42.6598 5.90611C41.4128 5.69872 40.1529 5.57479 38.8889 5.53517L38.839 5.53284C37.3414 5.47218 36.1478 5.43563 35.2581 5.42319C34.3684 5.41075 33.0632 5.41075 31.3424 5.42319L28.5214 5.47685ZM57 28.447C57 34.0119 56.9367 37.8636 56.81 40.0021C56.9223 42.1694 56.5698 44.3356 55.7754 46.3605C54.981 48.3853 53.7624 50.2236 52.1987 51.7562C50.6349 53.2888 48.7608 54.4815 46.6978 55.2571C44.6349 56.0326 42.4291 56.3736 40.2234 56.2581L40.2614 56.2604C38.0847 56.3848 34.1642 56.447 28.5 56.447C22.8358 56.447 18.9153 56.3848 16.7386 56.2604C14.5326 56.3707 12.3277 56.0243 10.2667 55.2439C8.20564 54.4634 6.33452 53.2662 4.77455 51.7299C3.21459 50.1936 2.00058 48.3524 1.21122 46.3256C0.421846 44.2988 0.0747238 42.1318 0.192343 39.9648L0.189968 40.0021C0.0633228 37.8636 0 34.0119 0 28.447C0 22.8822 0.0633228 19.0305 0.189968 16.8919C0.0777242 14.7247 0.43022 12.5584 1.22461 10.5336C2.01901 8.5087 3.23757 6.67041 4.80135 5.13781C6.36512 3.60521 8.2392 2.41251 10.3022 1.63699C12.3651 0.861467 14.5709 0.520434 16.7766 0.63599L16.7386 0.633657C18.9153 0.509233 22.8358 0.447021 28.5 0.447021C34.1642 0.447021 38.0847 0.509233 40.2614 0.633657C42.4674 0.523382 44.6723 0.869694 46.7333 1.65015C48.7944 2.43061 50.6655 3.6278 52.2254 5.16413C53.7854 6.70047 54.9994 8.54168 55.7888 10.5684C56.5782 12.5952 56.9253 14.7623 56.8077 16.9293L56.81 16.8919C56.9367 19.0289 57 22.8806 57 28.447Z" fill="white"/>
</svg>
