<svg width="60" height="59" viewBox="0 0 60 59" fill="none" xmlns="http://www.w3.org/2000/svg">
<path d="M30.2099 0.323975C13.7609 0.323975 0.419922 13.3561 0.419922 29.4243C0.419922 45.4926 13.7609 58.5247 30.2099 58.5247C46.659 58.5247 59.9999 45.4926 59.9999 29.4243C59.9999 13.3561 46.6664 0.323975 30.2099 0.323975ZM15.1163 30.4016L15.2429 30.2052L22.9958 18.3614C23.0217 18.3224 23.0579 18.291 23.1006 18.2704C23.1432 18.2498 23.1907 18.2408 23.2382 18.2442C23.2856 18.2477 23.3312 18.2636 23.3702 18.2901C23.4093 18.3167 23.4403 18.353 23.46 18.3953C24.7509 21.2302 25.873 24.7562 25.3467 26.9508C25.1282 27.8529 24.5151 29.0751 23.8224 30.2052C23.7336 30.3705 23.6367 30.5316 23.532 30.6878C23.5069 30.7226 23.4734 30.7509 23.4344 30.7699C23.3954 30.7889 23.3522 30.7982 23.3086 30.7969H15.3472C15.2997 30.7976 15.2528 30.7858 15.2117 30.7626C15.1705 30.7394 15.1365 30.7057 15.1134 30.6652C15.0902 30.6247 15.0787 30.5788 15.0801 30.5323C15.0815 30.4859 15.0957 30.4408 15.1213 30.4016H15.1163ZM49.6578 34.4757C49.6584 34.5275 49.6435 34.5783 49.6148 34.6218C49.5861 34.6654 49.545 34.6997 49.4965 34.7206C48.8932 34.9704 46.8402 35.8968 45.9862 37.0535C43.8066 40.0169 42.1433 44.2558 38.4195 44.2558H22.894C21.5831 44.2539 20.2855 43.9997 19.0753 43.5077C17.8651 43.0157 16.766 42.2955 15.8408 41.3884C14.9156 40.4812 14.1825 39.4049 13.6833 38.2209C13.1842 37.0368 12.9288 35.7683 12.9317 34.4878V34.3132C12.9317 34.1726 13.0509 34.0562 13.1998 34.0562H21.8513C22.0251 34.0562 22.1492 34.2089 22.1368 34.3763C22.0723 34.9243 22.179 35.4894 22.4471 36.001C22.9585 37.0195 24.026 37.6549 25.1754 37.6549H29.4602V34.3884H25.2201C25.1704 34.3879 25.1218 34.3741 25.0795 34.3486C25.0373 34.3231 25.0029 34.2868 24.9802 34.2437C24.9574 34.2005 24.9472 34.1521 24.9505 34.1037C24.9539 34.0553 24.9707 34.0086 24.9992 33.9689L25.1555 33.7506C25.5527 33.1904 26.1262 32.3295 26.6972 31.345C27.0845 30.6805 27.4618 29.9724 27.7647 29.2594C27.8242 29.1333 27.8714 29 27.926 28.8714C28.0079 28.6435 28.0923 28.4301 28.1519 28.2191C28.2104 28.0402 28.2642 27.8599 28.3133 27.6783C28.4548 27.0721 28.5144 26.4319 28.5144 25.7698C28.5144 25.5079 28.5044 25.2339 28.4796 24.9768C28.4672 24.6931 28.43 24.407 28.3952 24.1232C28.3675 23.8694 28.3277 23.6169 28.2761 23.3666C28.2092 22.9855 28.1281 22.607 28.0328 22.2317L27.998 22.0862C27.9235 21.8243 27.859 21.5769 27.7746 21.3175C27.5382 20.5206 27.2665 19.7342 26.9603 18.9603C26.8536 18.6693 26.7361 18.3821 26.6078 18.0995C26.4291 17.6678 26.2454 17.2774 26.079 16.9112C25.9963 16.7543 25.9185 16.595 25.8457 16.4335C25.7649 16.2592 25.6797 16.087 25.59 15.9169C25.5304 15.7884 25.4584 15.6647 25.4112 15.5483L24.8874 14.6074C24.8154 14.4789 24.9346 14.3213 25.0786 14.3625L28.3555 15.2282H28.3803L28.8098 15.3495L29.2864 15.4804L29.4602 15.5265V13.6277C29.4602 12.7086 30.2099 11.9641 31.1458 11.9641C31.3668 11.9635 31.5856 12.0066 31.7892 12.0908C31.9927 12.175 32.1766 12.2985 32.33 12.454C32.6469 12.7663 32.8253 13.1879 32.8265 13.6277V16.4504L33.1765 16.545C33.2013 16.5571 33.2311 16.5693 33.2535 16.5862C33.3379 16.6444 33.462 16.7366 33.6184 16.853C33.7425 16.9451 33.8741 17.0615 34.028 17.1852C34.5182 17.5754 34.9935 17.983 35.453 18.4074C35.9842 18.89 36.58 19.455 37.151 20.0831C37.3124 20.2626 37.4663 20.4372 37.6276 20.6312C37.7815 20.8228 37.9553 21.0095 38.0993 21.1938C38.2954 21.446 38.4965 21.7079 38.6827 21.9795C38.7646 22.108 38.8664 22.2414 38.9434 22.3699C39.1817 22.7143 39.3852 23.0683 39.5814 23.4248C39.6658 23.5873 39.7477 23.7668 39.8197 23.9414C40.0406 24.4191 40.2144 24.9017 40.3211 25.3915C40.3565 25.4955 40.3806 25.6028 40.3931 25.7116V25.7359C40.4279 25.8741 40.4403 26.0269 40.4527 26.1821C40.5226 26.8988 40.4328 27.6219 40.1896 28.3016C40.1126 28.5053 40.0406 28.7138 39.9463 28.9175C39.7601 29.3298 39.5466 29.7493 39.2909 30.1349C39.2065 30.2804 39.1047 30.4307 39.0104 30.5762C38.9036 30.729 38.7894 30.8745 38.6951 31.0127C38.5586 31.1964 38.4153 31.3751 38.2656 31.5487C38.1341 31.7233 38.0025 31.8979 37.8535 32.0555C37.6525 32.2932 37.4563 32.5163 37.2453 32.7297C37.1262 32.8703 36.9971 33.0158 36.8581 33.1419C36.729 33.2874 36.5899 33.416 36.4708 33.5324C36.2623 33.7361 36.0984 33.8888 35.9544 34.0222L35.6143 34.3181C35.567 34.3645 35.5027 34.3907 35.4356 34.3908H32.8265V37.6549H36.1083C36.8407 37.6549 37.5383 37.4027 38.1043 36.9322C38.2954 36.7698 39.1345 36.0592 40.13 34.9874C40.1624 34.9509 40.2059 34.9254 40.2541 34.9146L49.3152 32.3514C49.355 32.3401 49.3969 32.338 49.4377 32.3453C49.4784 32.3525 49.5169 32.3689 49.5501 32.3931C49.5833 32.4173 49.6103 32.4486 49.629 32.4847C49.6477 32.5208 49.6575 32.5607 49.6578 32.6011V34.4757Z" fill="#3F3C40"/>
</svg>
