<svg width="196" height="266" viewBox="0 0 196 266" fill="none" xmlns="http://www.w3.org/2000/svg">
<path d="M129.11 207.812V257.688C129.11 259.904 128.261 261.844 126.563 263.506C124.864 265.169 122.883 266 120.619 266H69.6703C67.4059 266 65.4246 265.169 63.7263 263.506C62.028 261.844 61.1789 259.904 61.1789 257.688V207.812C61.1789 205.596 62.028 203.656 63.7263 201.994C65.4246 200.331 67.4059 199.5 69.6703 199.5H120.619C122.883 199.5 124.864 200.331 126.563 201.994C128.261 203.656 129.11 205.596 129.11 207.812ZM196.192 83.125C196.192 90.6063 195.095 97.6026 192.901 104.114C190.708 110.626 188.231 115.925 185.471 120.012C182.712 124.099 178.82 128.22 173.796 132.377C168.772 136.533 164.703 139.546 161.589 141.416C158.476 143.287 154.16 145.746 148.64 148.794C142.838 151.98 137.99 156.483 134.099 162.302C130.207 168.12 128.261 172.761 128.261 176.225C128.261 178.58 127.412 180.832 125.713 182.979C124.015 185.126 122.034 186.2 119.769 186.2H68.8211C66.6983 186.2 64.8939 184.918 63.4079 182.355C61.9219 179.792 61.1789 177.195 61.1789 174.562V165.211C61.1789 153.712 65.7784 142.871 74.9774 132.688C84.1764 122.505 94.2953 114.99 105.334 110.141C113.684 106.4 119.628 102.521 123.166 98.5031C126.704 94.4854 128.473 89.2208 128.473 82.7094C128.473 76.8906 125.183 71.7646 118.602 67.3313C112.021 62.8979 104.414 60.6813 95.7813 60.6813C86.5823 60.6813 78.94 62.6901 72.8545 66.7078C67.9012 70.1714 60.3298 78.1375 50.1401 90.6063C48.3003 92.8229 46.1067 93.9313 43.5593 93.9313C41.861 93.9313 40.092 93.3771 38.2522 92.2688L3.43752 66.2922C1.59772 64.9068 0.500919 63.175 0.147112 61.0969C-0.206696 59.0187 0.182492 57.0792 1.31468 55.2781C23.9584 18.426 56.7917 0 99.8147 0C111.137 0 122.529 2.1474 133.992 6.44219C145.456 10.737 155.787 16.4865 164.986 23.6906C174.185 30.8948 181.686 39.7268 187.488 50.1867C193.291 60.6466 196.192 71.626 196.192 83.125Z" fill="#1F1E1E"/>
</svg>
