<svg width="76" height="63" viewBox="0 0 76 63" fill="none" xmlns="http://www.w3.org/2000/svg">
<g filter="url(#filter0_d_892_196)">
<path d="M64.1514 14.4637V16.2181C64.1514 33.8857 50.5558 54.1323 25.6781 54.1323C18.3339 54.148 11.1456 52.0438 5 48.0794C6.06732 48.2223 7.14393 48.2868 8.22094 48.2724C14.3087 48.2889 20.2253 46.2868 25.0196 42.5879C22.1914 42.5468 19.4483 41.6279 17.1801 39.9617C14.9119 38.2955 13.234 35.9669 12.385 33.3067C13.2275 33.4828 14.0864 33.571 14.9475 33.5699C16.1501 33.5702 17.3472 33.4108 18.5066 33.0962C15.4433 32.4941 12.6874 30.8612 10.7105 28.4769C8.73358 26.0925 7.65853 23.1049 7.66929 20.0254V19.8499C9.54348 20.8821 11.6447 21.4482 13.7908 21.4991C10.934 19.6456 8.90282 16.7866 8.11233 13.5061C7.32185 10.2256 7.83173 6.77137 9.53779 3.84911C12.9371 7.97123 17.1783 11.3419 21.9856 13.7419C26.793 16.142 32.0588 17.5177 37.4407 17.7796C37.1743 16.7838 37.0486 15.7565 37.067 14.7268C36.9668 12.0055 37.7198 9.31982 39.2233 7.03551C40.7268 4.7512 42.9079 2.97927 45.4696 1.96098C48.0312 0.942689 50.8489 0.727531 53.5391 1.3448C56.2292 1.96207 58.661 3.38177 60.5034 5.41059C63.5317 4.80805 66.4367 3.71103 69.0985 2.16482C68.089 5.30772 65.9417 7.97441 63.0659 9.65642C65.7523 9.29146 68.3713 8.54694 70.8424 7.44578C69.0516 10.1576 66.786 12.5338 64.1514 14.4637Z" fill="white" stroke="white" stroke-linecap="round" stroke-linejoin="round"/>
</g>
<defs>
<filter id="filter0_d_892_196" x="0.5" y="0.5" width="74.8423" height="62.1323" filterUnits="userSpaceOnUse" color-interpolation-filters="sRGB">
<feFlood flood-opacity="0" result="BackgroundImageFix"/>
<feColorMatrix in="SourceAlpha" type="matrix" values="0 0 0 0 0 0 0 0 0 0 0 0 0 0 0 0 0 0 127 0" result="hardAlpha"/>
<feOffset dy="4"/>
<feGaussianBlur stdDeviation="2"/>
<feComposite in2="hardAlpha" operator="out"/>
<feColorMatrix type="matrix" values="0 0 0 0 0 0 0 0 0 0 0 0 0 0 0 0 0 0 0.25 0"/>
<feBlend mode="normal" in2="BackgroundImageFix" result="effect1_dropShadow_892_196"/>
<feBlend mode="normal" in="SourceGraphic" in2="effect1_dropShadow_892_196" result="shape"/>
</filter>
</defs>
</svg>
