<svg width="57" height="57" viewBox="0 0 57 57" fill="none" xmlns="http://www.w3.org/2000/svg">
<path d="M28.5 0C20.9413 0 13.6922 3.00267 8.34746 8.34746C3.00267 13.6922 0 20.9413 0 28.5C0 36.0587 3.00267 43.3078 8.34746 48.6525C13.6922 53.9973 20.9413 57 28.5 57C36.0587 57 43.3078 53.9973 48.6525 48.6525C53.9973 43.3078 57 36.0587 57 28.5C57 20.9413 53.9973 13.6922 48.6525 8.34746C43.3078 3.00267 36.0587 0 28.5 0ZM44.7484 38.8855L38.8821 44.7518L28.5 34.3662L18.1145 44.7484L12.2482 38.8821L22.6371 28.5L12.2516 18.1145L18.1179 12.2516L28.5 22.6338L38.8855 12.2482L44.7518 18.1145L34.3629 28.5L44.7484 38.8855Z" fill="#FF6565"/>
</svg>
